<svg data-v-423bf9ae="" xmlns="http://www.w3.org/2000/svg" viewBox="0 0 442 107" class="iconLeft"><!----><!----><!----><g data-v-423bf9ae="" id="96b652a8-c1ea-4ad1-9911-b281bde83891" fill="#ffffff" transform="matrix(5.8458811825051065,0,0,5.8458811825051065,95.12440314923495,6.629546940136393)"><path d="M6.79 12.85L6.79 12.85L6.79 12.85Q6.58 12.63 6.41 12.45L6.41 12.45L6.41 12.45Q6.23 12.26 6.06 12.08L6.06 12.08L6.06 12.08Q5.89 11.89 5.72 11.68L5.72 11.68L5.72 11.68Q5.54 11.48 5.32 11.23L5.32 11.23L5.32 11.23Q5.10 10.98 4.84 10.65L4.84 10.65L4.84 10.65Q4.59 10.32 4.35 10.00L4.35 10.00L4.35 10.00Q4.10 9.69 3.89 9.44L3.89 9.44L3.89 9.44Q3.67 9.18 3.50 9.07L3.50 9.07L3.50 9.07Q3.21 9.10 3.00 9.09L3.00 9.09L3.00 9.09Q2.79 9.09 2.67 9.10L2.67 9.10L2.67 9.10Q2.66 9.10 2.66 9.31L2.66 9.31L2.66 9.31Q2.66 9.52 2.67 9.85L2.67 9.85L2.67 9.85Q2.67 10.18 2.68 10.56L2.68 10.56L2.68 10.56Q2.69 10.95 2.70 11.30L2.70 11.30L2.70 11.30Q2.72 11.65 2.72 11.90L2.72 11.90L2.72 11.90Q2.73 12.15 2.74 12.22L2.74 12.22L2.74 12.22Q2.74 12.25 2.75 12.35L2.75 12.35L2.75 12.35Q2.76 12.45 2.76 12.55L2.76 12.55L2.76 12.55Q2.76 12.66 2.75 12.75L2.75 12.75L2.75 12.75Q2.74 12.84 2.73 12.85L2.73 12.85L2.73 12.85Q2.70 12.98 2.52 13.03L2.52 13.03L2.52 13.03Q2.34 13.09 2.10 13.09L2.10 13.09L2.10 13.09Q1.86 13.09 1.63 13.03L1.63 13.03L1.63 13.03Q1.40 12.98 1.30 12.89L1.30 12.89L1.30 12.89Q1.27 12.49 1.26 11.91L1.26 11.91L1.26 11.91Q1.25 11.34 1.25 10.71L1.25 10.71L1.25 10.71Q1.25 10.08 1.25 9.43L1.25 9.43L1.25 9.43Q1.25 8.78 1.25 8.20L1.25 8.20L1.25 5.81L1.25 5.81Q1.25 5.87 1.23 5.72L1.23 5.72L1.23 5.72Q1.22 5.57 1.22 5.31L1.22 5.31L1.22 5.31Q1.22 5.05 1.23 4.73L1.23 4.73L1.23 4.73Q1.23 4.41 1.26 4.12L1.26 4.12L1.26 4.12Q1.29 3.84 1.35 3.63L1.35 3.63L1.35 3.63Q1.41 3.43 1.51 3.39L1.51 3.39L1.51 3.39Q1.65 3.32 1.73 3.30L1.73 3.30L1.73 3.30Q1.81 3.29 1.97 3.29L1.97 3.29L1.97 3.29Q2.17 3.29 2.39 3.24L2.39 3.24L2.39 3.24Q2.62 3.19 2.81 3.19L2.81 3.19L2.81 3.19Q3.01 3.19 3.21 3.17L3.21 3.17L3.21 3.17Q3.42 3.15 3.61 3.16L3.61 3.16L3.61 3.16Q3.93 3.18 4.28 3.21L4.28 3.21L4.28 3.21Q4.62 3.23 4.91 3.26L4.91 3.26L4.91 3.26Q5.40 3.32 5.81 3.58L5.81 3.58L5.81 3.58Q6.22 3.84 6.54 4.17L6.54 4.17L6.54 4.17Q6.87 4.52 7.11 4.94L7.11 4.94L7.11 4.94Q7.34 5.36 7.41 5.85L7.41 5.85L7.41 5.85Q7.42 5.91 7.43 5.95L7.43 5.95L7.43 5.95Q7.45 5.99 7.45 6.05L7.45 6.05L7.45 6.05Q7.46 6.09 7.46 6.17L7.46 6.17L7.46 6.17Q7.45 6.26 7.44 6.36L7.44 6.36L7.44 6.36Q7.43 6.45 7.42 6.55L7.42 6.55L7.42 6.55Q7.41 6.65 7.41 6.69L7.41 6.69L7.41 6.69Q7.36 7.10 7.17 7.41L7.17 7.41L7.17 7.41Q6.97 7.71 6.68 7.95L6.68 7.95L6.68 7.95Q6.38 8.18 6.01 8.36L6.01 8.36L6.01 8.36Q5.63 8.54 5.24 8.69L5.24 8.69L5.24 8.69Q5.36 8.81 5.56 9.07L5.56 9.07L5.56 9.07Q5.75 9.32 5.96 9.61L5.96 9.61L5.96 9.61Q6.17 9.90 6.38 10.18L6.38 10.18L6.38 10.18Q6.58 10.46 6.71 10.61L6.71 10.61L6.71 10.61Q6.76 10.67 6.78 10.70L6.78 10.70L6.78 10.70Q6.99 10.95 7.21 11.21L7.21 11.21L7.21 11.21Q7.43 11.48 7.64 11.73L7.64 11.73L7.64 11.73Q7.84 11.98 7.99 12.20L7.99 12.20L7.99 12.20Q8.15 12.42 8.23 12.56L8.23 12.56L8.23 12.56Q8.20 12.63 8.04 12.68L8.04 12.68L8.04 12.68Q7.88 12.73 7.66 12.77L7.66 12.77L7.66 12.77Q7.43 12.81 7.20 12.83L7.20 12.83L7.20 12.83Q6.96 12.85 6.79 12.85ZM3.53 4.47L3.51 4.48L3.51 4.48Q3.32 4.48 3.12 4.52L3.12 4.52L3.12 4.52Q2.91 4.55 2.72 4.61L2.72 4.61L2.72 4.61Q2.63 4.83 2.61 5.08L2.61 5.08L2.61 5.08Q2.59 5.33 2.59 5.60L2.59 5.60L2.59 5.60Q2.59 5.87 2.60 6.13L2.60 6.13L2.60 6.13Q2.60 6.40 2.60 6.64L2.60 6.64L2.60 6.64Q2.60 6.79 2.60 6.82L2.60 6.82L2.60 6.82Q2.60 6.85 2.61 6.85L2.61 6.85L2.61 6.85Q2.62 6.85 2.62 6.88L2.62 6.88L2.62 6.88Q2.62 6.92 2.62 7.06L2.62 7.06L2.62 7.06Q2.62 7.13 2.61 7.38L2.61 7.38L2.61 7.38Q2.60 7.64 2.63 7.81L2.63 7.81L2.63 7.81Q3.71 7.94 4.53 7.74L4.53 7.74L4.53 7.74Q5.35 7.53 5.80 7.06L5.80 7.06L5.80 7.06Q6.13 6.69 6.14 6.24L6.14 6.24L6.14 6.24Q6.15 5.80 5.90 5.40L5.90 5.40L5.90 5.40Q5.66 5.01 5.18 4.75L5.18 4.75L5.18 4.75Q4.70 4.48 4.07 4.48L4.07 4.48L4.07 4.48Q3.88 4.48 3.80 4.47L3.80 4.47L3.80 4.47Q3.72 4.45 3.53 4.47L3.53 4.47ZM11.34 6.76L11.34 6.76L11.34 6.76Q11.76 6.73 12.20 6.82L12.20 6.82L12.20 6.82Q12.64 6.90 13.01 7.15L13.01 7.15L13.01 7.15Q13.61 7.56 13.92 8.16L13.92 8.16L13.92 8.16Q14.22 8.76 14.25 9.41L14.25 9.41L14.25 9.41Q14.28 10.07 14.06 10.72L14.06 10.72L14.06 10.72Q13.85 11.37 13.42 11.87L13.42 11.87L13.42 11.87Q12.99 12.38 12.37 12.68L12.37 12.68L12.37 12.68Q11.75 12.98 10.96 12.94L10.96 12.94L10.96 12.94Q10.64 12.92 10.33 12.81L10.33 12.81L10.33 12.81Q9.69 12.59 9.26 12.19L9.26 12.19L9.26 12.19Q8.83 11.79 8.61 11.28L8.61 11.28L8.61 11.28Q8.39 10.77 8.36 10.20L8.36 10.20L8.36 10.20Q8.34 9.63 8.52 9.09L8.52 9.09L8.52 9.09Q8.69 8.54 9.06 8.06L9.06 8.06L9.06 8.06Q9.42 7.59 9.98 7.25L9.98 7.25L9.98 7.25Q10.14 7.15 10.32 7.05L10.32 7.05L10.32 7.05Q10.51 6.94 10.71 6.87L10.71 6.87L10.71 6.87Q10.86 6.82 11.03 6.80L11.03 6.80L11.03 6.80Q11.20 6.78 11.34 6.76ZM13.05 9.45L13.05 9.45L13.05 9.45Q13.05 9.00 12.85 8.66L12.85 8.66L12.85 8.66Q12.66 8.32 12.34 8.12L12.34 8.12L12.34 8.12Q12.03 7.92 11.63 7.88L11.63 7.88L11.63 7.88Q11.24 7.84 10.86 7.99L10.86 7.99L10.86 7.99Q10.49 8.15 10.16 8.50L10.16 8.50L10.16 8.50Q9.84 8.85 9.66 9.44L9.66 9.44L9.66 9.44Q9.62 9.58 9.58 9.71L9.58 9.71L9.58 9.71Q9.53 9.84 9.53 9.98L9.53 9.98L9.53 9.98Q9.53 10.26 9.58 10.54L9.58 10.54L9.58 10.54Q9.62 10.81 9.76 11.05L9.76 11.05L9.76 11.05Q10.01 11.48 10.55 11.60L10.55 11.60L10.55 11.60Q11.09 11.72 11.65 11.52L11.65 11.52L11.65 11.52Q12.21 11.31 12.63 10.79L12.63 10.79L12.63 10.79Q13.05 10.28 13.05 9.45ZM19.18 12.54L19.18 12.54L19.18 12.54Q18.30 13.01 17.55 13.02L17.55 13.02L17.55 13.02Q16.80 13.03 16.26 12.74L16.26 12.74L16.26 12.74Q15.72 12.45 15.41 11.91L15.41 11.91L15.41 11.91Q15.11 11.38 15.07 10.75L15.07 10.75L15.07 10.75Q15.04 10.11 15.32 9.44L15.32 9.44L15.32 9.44Q15.61 8.76 16.25 8.19L16.25 8.19L16.25 8.19Q17.32 7.25 18.76 7.21L18.76 7.21L18.76 7.21Q19.04 7.20 19.31 7.23L19.31 7.23L19.31 7.23Q19.59 7.27 19.84 7.39L19.84 7.39L19.84 7.39Q19.92 7.52 19.94 7.63L19.94 7.63L19.94 7.63Q19.95 7.74 19.94 7.85L19.94 7.85L19.94 7.85Q19.92 7.97 19.88 8.09L19.88 8.09L19.88 8.09Q19.84 8.22 19.82 8.36L19.82 8.36L19.82 8.36Q19.78 8.53 19.68 8.56L19.68 8.56L19.68 8.56Q19.59 8.60 19.46 8.57L19.46 8.57L19.46 8.57Q19.33 8.55 19.20 8.51L19.20 8.51L19.20 8.51Q19.07 8.47 18.96 8.50L18.96 8.50L18.96 8.50Q18.84 8.46 18.62 8.48L18.62 8.48L18.62 8.48Q18.40 8.51 18.28 8.46L18.28 8.46L18.28 8.46Q17.75 8.53 17.35 8.80L17.35 8.80L17.35 8.80Q16.94 9.07 16.69 9.44L16.69 9.44L16.69 9.44Q16.44 9.81 16.35 10.23L16.35 10.23L16.35 10.23Q16.27 10.65 16.38 11.00L16.38 11.00L16.38 11.00Q16.49 11.35 16.82 11.59L16.82 11.59L16.82 11.59Q17.15 11.82 17.71 11.82L17.71 11.82L17.71 11.82Q18.37 11.82 18.93 11.47L18.93 11.47L18.93 11.47Q19.49 11.13 19.95 10.71L19.95 10.71L19.95 10.71Q20.15 10.79 20.27 10.94L20.27 10.94L20.27 10.94Q20.38 11.09 20.41 11.45L20.41 11.45L20.41 11.45Q20.37 11.61 20.22 11.77L20.22 11.77L20.22 11.77Q20.08 11.94 19.89 12.09L19.89 12.09L19.89 12.09Q19.71 12.24 19.52 12.36L19.52 12.36L19.52 12.36Q19.32 12.47 19.18 12.54ZM24.25 9.11L24.25 9.11L24.25 9.11Q24.36 9.39 24.65 9.76L24.65 9.76L24.65 9.76Q24.93 10.12 25.28 10.51L25.28 10.51L25.28 10.51Q25.63 10.91 25.98 11.27L25.98 11.27L25.98 11.27Q26.32 11.63 26.54 11.90L26.54 11.90L26.54 11.90Q26.61 11.98 26.69 12.05L26.69 12.05L26.69 12.05Q26.77 12.12 26.81 12.21L26.81 12.21L26.81 12.21Q26.78 12.29 26.67 12.37L26.67 12.37L26.67 12.37Q26.56 12.45 26.49 12.49L26.49 12.49L26.49 12.49Q26.42 12.54 26.30 12.61L26.30 12.61L26.30 12.61Q26.18 12.67 26.08 12.67L26.08 12.67L26.08 12.67Q25.70 12.67 25.33 12.33L25.33 12.33L25.33 12.33Q24.96 11.98 24.60 11.54L24.60 11.54L24.60 11.54Q24.25 11.10 23.89 10.68L23.89 10.68L23.89 10.68Q23.53 10.25 23.16 10.09L23.16 10.09L23.16 10.09Q22.92 10.18 22.73 10.34L22.73 10.34L22.73 10.34Q22.54 10.50 22.47 10.67L22.47 10.67L22.51 12.19L22.51 12.19Q22.51 12.42 22.46 12.52L22.46 12.52L22.46 12.52Q22.41 12.61 22.32 12.64L22.32 12.64L22.32 12.64Q22.22 12.67 22.08 12.65L22.08 12.65L22.08 12.65Q21.94 12.63 21.78 12.60L21.78 12.60L21.78 12.60Q21.66 12.57 21.53 12.56L21.53 12.56L21.53 12.56Q21.41 12.54 21.32 12.43L21.32 12.43L21.32 12.43Q21.24 11.90 21.29 11.37L21.29 11.37L21.29 11.37Q21.34 10.84 21.31 10.30L21.31 10.30L21.31 10.30Q21.27 9.38 21.27 8.48L21.27 8.48L21.27 8.48Q21.28 7.57 21.31 6.65L21.31 6.65L21.31 6.65Q21.32 5.84 21.35 5.03L21.35 5.03L21.35 5.03Q21.38 4.23 21.49 3.43L21.49 3.43L21.49 3.43Q21.70 3.37 21.87 3.26L21.87 3.26L21.87 3.26Q22.04 3.26 22.18 3.26L22.18 3.26L22.18 3.26Q22.33 3.26 22.47 3.39L22.47 3.39L22.47 3.39Q22.51 3.51 22.53 3.91L22.53 3.91L22.53 3.91Q22.54 4.31 22.54 4.86L22.54 4.86L22.54 4.86Q22.54 5.40 22.53 6.03L22.53 6.03L22.53 6.03Q22.53 6.66 22.51 7.25L22.51 7.25L22.51 7.25Q22.50 7.83 22.49 8.29L22.49 8.29L22.49 8.29Q22.48 8.76 22.48 9.00L22.48 9.00L22.48 9.00Q22.60 8.97 22.83 8.79L22.83 8.79L22.83 8.79Q23.07 8.60 23.37 8.34L23.37 8.34L23.37 8.34Q23.67 8.08 24.01 7.79L24.01 7.79L24.01 7.79Q24.35 7.50 24.65 7.25L24.65 7.25L24.65 7.25Q24.96 7 25.21 6.83L25.21 6.83L25.21 6.83Q25.45 6.66 25.59 6.66L25.59 6.66L25.59 6.66Q25.63 6.66 25.71 6.72L25.71 6.72L25.71 6.72Q25.79 6.78 25.88 6.86L25.88 6.86L25.88 6.86Q25.97 6.94 26.05 7.06L26.05 7.06L26.05 7.06Q26.12 7.17 26.15 7.29L26.15 7.29L26.15 7.29Q26.12 7.36 25.87 7.62L25.87 7.62L25.87 7.62Q25.62 7.87 25.29 8.17L25.29 8.17L25.29 8.17Q24.96 8.47 24.66 8.74L24.66 8.74L24.66 8.74Q24.36 9.02 24.25 9.11ZM28.04 12.59L28.04 12.59L28.04 12.59Q27.97 12.26 27.97 11.79L27.97 11.79L27.97 11.79Q27.97 11.33 27.99 10.82L27.99 10.82L27.99 10.82Q28.01 10.32 28.04 9.85L28.04 9.85L28.04 9.85Q28.07 9.38 28.07 9.04L28.07 9.04L28.08 9.04L28.08 9.04Q28.17 7.83 28.17 6.58L28.17 6.58L28.17 6.58Q28.17 6.13 28.21 5.68L28.21 5.68L28.21 5.68Q28.25 5.24 28.25 4.79L28.25 4.79L28.25 4.79Q28.25 4.41 28.25 4.00L28.25 4.00L28.25 4.00Q28.25 3.58 28.34 3.22L28.34 3.22L28.34 3.22Q28.55 3.07 28.69 3.08L28.69 3.08L28.69 3.08Q28.84 3.09 29.11 3.12L29.11 3.12L29.11 3.12Q29.12 3.15 29.20 3.16L29.20 3.16L29.20 3.16Q29.29 3.18 29.39 3.19L29.39 3.19L29.39 3.19Q29.50 3.21 29.59 3.21L29.59 3.21L29.59 3.21Q29.68 3.21 29.71 3.22L29.71 3.22L29.71 3.22Q29.64 5.21 29.64 7.16L29.64 7.16L29.64 7.16Q29.65 9.11 29.58 11.10L29.58 11.10L29.53 12.63L29.53 12.63Q29.46 12.67 29.36 12.71L29.36 12.71L29.36 12.71Q29.27 12.74 29.16 12.76L29.16 12.76L29.16 12.76Q29.05 12.78 28.91 12.75L28.91 12.75L28.91 12.75Q28.87 12.75 28.74 12.73L28.74 12.73L28.74 12.73Q28.62 12.71 28.48 12.68L28.48 12.68L28.48 12.68Q28.34 12.64 28.21 12.61L28.21 12.61L28.21 12.61Q28.08 12.59 28.04 12.59ZM34.79 8.05L34.79 8.05L34.79 8.05Q34.64 8.09 34.08 8.11L34.08 8.11L34.08 8.11Q33.53 8.13 32.86 8.15L32.86 8.15L32.86 8.15Q32.84 8.72 32.84 9.28L32.84 9.28L32.84 9.28Q32.83 9.84 32.80 10.47L32.80 10.47L32.80 10.47Q32.79 10.85 32.93 11.09L32.93 11.09L32.93 11.09Q33.08 11.33 33.43 11.52L33.43 11.52L33.43 11.52Q33.59 11.61 33.84 11.63L33.84 11.63L33.84 11.63Q34.10 11.66 34.30 11.45L34.30 11.45L34.30 11.45Q34.48 11.35 34.64 11.38L34.64 11.38L34.64 11.38Q34.80 11.41 34.93 11.51L34.93 11.51L34.93 11.51Q35.06 11.61 35.13 11.72L35.13 11.72L35.13 11.72Q35.21 11.83 35.22 11.90L35.22 11.90L35.22 11.90Q35.06 12.24 34.90 12.41L34.90 12.41L34.90 12.41Q34.75 12.59 34.58 12.66L34.58 12.66L34.58 12.66Q34.41 12.74 34.21 12.75L34.21 12.75L34.21 12.75Q34.01 12.75 33.74 12.75L33.74 12.75L33.74 12.75Q33.36 12.74 33.12 12.68L33.12 12.68L33.12 12.68Q32.87 12.61 32.59 12.39L32.59 12.39L32.59 12.39Q32.13 12.01 31.92 11.67L31.92 11.67L31.92 11.67Q31.71 11.33 31.63 10.96L31.63 10.96L31.63 10.96Q31.56 10.58 31.58 10.15L31.58 10.15L31.58 10.15Q31.60 9.72 31.63 9.17L31.63 9.17L31.63 9.17Q31.64 8.93 31.65 8.68L31.65 8.68L31.65 8.68Q31.65 8.43 31.65 8.16L31.65 8.16L31.65 8.16Q31.33 8.18 31.07 8.18L31.07 8.18L31.07 8.18Q30.81 8.18 30.69 8.18L30.69 8.18L30.69 8.18Q30.53 8.02 30.52 7.77L30.52 7.77L30.52 7.77Q30.51 7.52 30.53 7.15L30.53 7.15L30.53 7.15Q30.60 7.06 30.96 7.01L30.96 7.01L30.96 7.01Q31.32 6.97 31.70 6.97L31.70 6.97L31.70 6.97Q31.71 6.73 31.72 6.50L31.72 6.50L31.72 6.50Q31.72 6.26 31.74 6.03L31.74 6.03L31.74 6.03Q31.75 5.66 31.75 5.23L31.75 5.23L31.75 5.23Q31.75 4.80 31.86 4.44L31.86 4.44L31.86 4.44Q31.98 4.41 32.12 4.37L32.12 4.37L32.12 4.37Q32.26 4.33 32.40 4.30L32.40 4.30L32.40 4.30Q32.48 4.27 32.70 4.29L32.70 4.29L32.70 4.29Q32.91 4.31 33.00 4.31L33.00 4.31L33.00 4.31Q33.00 4.38 33.01 4.60L33.01 4.60L33.01 4.60Q33.03 4.82 33.01 4.94L33.01 4.94L33.01 4.94Q32.98 5.26 32.98 5.54L32.98 5.54L32.98 5.54Q32.97 5.82 32.94 6.19L32.94 6.19L32.94 6.19Q32.93 6.38 32.92 6.57L32.92 6.57L32.92 6.57Q32.91 6.76 32.90 6.96L32.90 6.96L32.90 6.96Q33.35 6.93 33.87 6.93L33.87 6.93L33.87 6.93Q34.38 6.93 34.75 6.99L34.75 6.99L34.75 6.99Q34.80 7.04 34.82 7.21L34.82 7.21L34.82 7.21Q34.85 7.38 34.85 7.56L34.85 7.56L34.85 7.56Q34.85 7.74 34.82 7.89L34.82 7.89L34.82 7.89Q34.80 8.04 34.79 8.05ZM42.78 5.96L42.78 5.96L42.78 5.96Q42.50 5.40 42.08 5.03L42.08 5.03L42.08 5.03Q41.66 4.66 41.03 4.56L41.03 4.56L41.03 4.56Q40.17 4.42 39.53 4.84L39.53 4.84L39.53 4.84Q38.89 5.25 38.47 5.96L38.47 5.96L38.47 5.96Q38.28 6.30 38.09 6.64L38.09 6.64L38.09 6.64Q37.91 6.97 37.79 7.34L37.79 7.34L37.79 7.34Q37.62 7.83 37.55 8.43L37.55 8.43L37.55 8.43Q37.49 9.03 37.60 9.61L37.60 9.61L37.60 9.61Q37.70 10.19 38.00 10.67L38.00 10.67L38.00 10.67Q38.29 11.14 38.84 11.40L38.84 11.40L38.84 11.40Q39.49 11.69 40.24 11.61L40.24 11.61L40.24 11.61Q40.99 11.52 41.58 11.14L41.58 11.14L41.58 11.14Q41.72 11.06 41.94 10.88L41.94 10.88L41.94 10.88Q42.17 10.71 42.38 10.51L42.38 10.51L42.38 10.51Q42.60 10.30 42.78 10.09L42.78 10.09L42.78 10.09Q42.95 9.88 43.02 9.73L43.02 9.73L43.02 9.73Q43.27 9.76 43.48 9.97L43.48 9.97L43.48 9.97Q43.68 10.18 43.88 10.32L43.88 10.32L43.88 10.32Q43.86 10.49 43.84 10.60L43.84 10.60L43.84 10.60Q43.82 10.71 43.71 10.84L43.71 10.84L43.71 10.84Q43.65 11.02 43.53 11.20L43.53 11.20L43.53 11.20Q43.40 11.38 43.25 11.55L43.25 11.55L43.25 11.55Q43.09 11.72 42.92 11.87L42.92 11.87L42.92 11.87Q42.76 12.01 42.60 12.12L42.60 12.12L42.60 12.12Q41.97 12.57 41.25 12.80L41.25 12.80L41.25 12.80Q40.53 13.03 39.79 13.03L39.79 13.03L39.79 13.03Q39.06 13.02 38.37 12.75L38.37 12.75L38.37 12.75Q37.67 12.47 37.13 11.89L37.13 11.89L37.13 11.89Q36.93 11.69 36.81 11.49L36.81 11.49L36.81 11.49Q36.69 11.30 36.58 11.06L36.58 11.06L36.58 11.06Q36.53 10.95 36.43 10.76L36.43 10.76L36.43 10.76Q36.34 10.57 36.27 10.36L36.27 10.36L36.27 10.36Q36.20 10.15 36.16 9.96L36.16 9.96L36.16 9.96Q36.12 9.77 36.15 9.66L36.15 9.66L36.15 9.66Q36.11 9.53 36.08 9.33L36.08 9.33L36.08 9.33Q36.05 9.13 36.04 8.97L36.04 8.97L36.04 8.97Q35.99 8.29 36.14 7.51L36.14 7.51L36.14 7.51Q36.29 6.73 36.61 6.00L36.61 6.00L36.61 6.00Q36.93 5.26 37.41 4.65L37.41 4.65L37.41 4.65Q37.88 4.03 38.49 3.65L38.49 3.65L38.49 3.65Q38.91 3.39 39.30 3.19L39.30 3.19L39.30 3.19Q39.69 3.00 40.09 2.90L40.09 2.90L40.09 2.90Q40.49 2.81 40.91 2.83L40.91 2.83L40.91 2.83Q41.33 2.84 41.83 3.00L41.83 3.00L41.83 3.00Q42.11 3.08 42.34 3.16L42.34 3.16L42.34 3.16Q42.56 3.23 42.80 3.42L42.80 3.42L42.80 3.42Q43.16 3.70 43.43 4.11L43.43 4.11L43.43 4.11Q43.69 4.52 43.69 4.98L43.69 4.98L43.69 4.98Q43.58 5.08 43.47 5.22L43.47 5.22L43.47 5.22Q43.36 5.36 43.25 5.50L43.25 5.50L43.25 5.50Q43.13 5.64 43.02 5.77L43.02 5.77L43.02 5.77Q42.91 5.89 42.78 5.96ZM47.73 6.76L47.73 6.76L47.73 6.76Q48.15 6.73 48.59 6.82L48.59 6.82L48.59 6.82Q49.03 6.90 49.39 7.15L49.39 7.15L49.39 7.15Q49.99 7.56 50.30 8.16L50.30 8.16L50.30 8.16Q50.61 8.76 50.64 9.41L50.64 9.41L50.64 9.41Q50.67 10.07 50.45 10.72L50.45 10.72L50.45 10.72Q50.23 11.37 49.80 11.87L49.80 11.87L49.80 11.87Q49.38 12.38 48.75 12.68L48.75 12.68L48.75 12.68Q48.13 12.98 47.35 12.94L47.35 12.94L47.35 12.94Q47.03 12.92 46.72 12.81L46.72 12.81L46.72 12.81Q46.07 12.59 45.65 12.19L45.65 12.19L45.65 12.19Q45.22 11.79 45.00 11.28L45.00 11.28L45.00 11.28Q44.77 10.77 44.75 10.20L44.75 10.20L44.75 10.20Q44.73 9.63 44.90 9.09L44.90 9.09L44.90 9.09Q45.08 8.54 45.44 8.06L45.44 8.06L45.44 8.06Q45.81 7.59 46.37 7.25L46.37 7.25L46.37 7.25Q46.52 7.15 46.71 7.05L46.71 7.05L46.71 7.05Q46.90 6.94 47.10 6.87L47.10 6.87L47.10 6.87Q47.25 6.82 47.42 6.80L47.42 6.80L47.42 6.80Q47.59 6.78 47.73 6.76ZM49.43 9.45L49.43 9.45L49.43 9.45Q49.43 9.00 49.24 8.66L49.24 8.66L49.24 8.66Q49.04 8.32 48.73 8.12L48.73 8.12L48.73 8.12Q48.41 7.92 48.02 7.88L48.02 7.88L48.02 7.88Q47.63 7.84 47.25 7.99L47.25 7.99L47.25 7.99Q46.87 8.15 46.55 8.50L46.55 8.50L46.55 8.50Q46.23 8.85 46.05 9.44L46.05 9.44L46.05 9.44Q46.00 9.58 45.96 9.71L45.96 9.71L45.96 9.71Q45.92 9.84 45.92 9.98L45.92 9.98L45.92 9.98Q45.92 10.26 45.96 10.54L45.96 10.54L45.96 10.54Q46.00 10.81 46.14 11.05L46.14 11.05L46.14 11.05Q46.40 11.48 46.93 11.60L46.93 11.60L46.93 11.60Q47.47 11.72 48.03 11.52L48.03 11.52L48.03 11.52Q48.59 11.31 49.01 10.79L49.01 10.79L49.01 10.79Q49.43 10.28 49.43 9.45ZM52.82 4.93L52.82 4.93L52.82 4.93Q53.09 5.07 53.18 5.31L53.18 5.31L53.18 5.31Q53.27 5.54 53.21 5.79L53.21 5.79L53.21 5.79Q53.16 6.03 52.98 6.22L52.98 6.22L52.98 6.22Q52.81 6.41 52.54 6.45L52.54 6.45L52.54 6.45Q52.16 6.51 51.93 6.32L51.93 6.32L51.93 6.32Q51.70 6.13 51.65 5.86L51.65 5.86L51.65 5.86Q51.60 5.59 51.74 5.30L51.74 5.30L51.74 5.30Q51.87 5.01 52.23 4.86L52.23 4.86L52.23 4.86Q52.43 4.77 52.57 4.82L52.57 4.82L52.57 4.82Q52.71 4.87 52.82 4.93ZM51.87 8.22L51.87 8.22L51.87 8.22Q51.87 8.09 51.88 7.88L51.88 7.88L51.88 7.88Q51.90 7.66 51.91 7.57L51.91 7.57L51.91 7.57Q52.00 7.57 52.21 7.55L52.21 7.55L52.21 7.55Q52.43 7.52 52.51 7.55L52.51 7.55L52.51 7.55Q52.65 7.56 52.79 7.60L52.79 7.60L52.79 7.60Q52.93 7.64 53.05 7.66L53.05 7.66L53.05 7.66Q53.07 7.78 53.09 8.16L53.09 8.16L53.09 8.16Q53.10 8.53 53.10 9.02L53.10 9.02L53.10 9.02Q53.10 9.51 53.09 10.06L53.09 10.06L53.09 10.06Q53.09 10.61 53.07 11.11L53.07 11.11L53.07 11.11Q53.06 11.61 53.05 11.98L53.05 11.98L53.05 11.98Q53.03 12.35 53.02 12.47L53.02 12.47L53.02 12.47Q53.00 12.60 52.83 12.65L52.83 12.65L52.83 12.65Q52.65 12.70 52.44 12.71L52.44 12.71L52.44 12.71Q52.23 12.71 52.04 12.69L52.04 12.69L52.04 12.69Q51.84 12.67 51.79 12.67L51.79 12.67L51.79 12.67Q51.79 12.54 51.79 12.20L51.79 12.20L51.79 12.20Q51.80 11.86 51.81 11.40L51.81 11.40L51.81 11.40Q51.83 10.93 51.83 10.42L51.83 10.42L51.83 10.42Q51.84 9.91 51.86 9.46L51.86 9.46L51.86 9.46Q51.87 9.00 51.87 8.67L51.87 8.67L51.87 8.67Q51.87 8.33 51.87 8.22ZM59.08 12.66L59.08 12.66L59.08 12.66Q58.98 12.67 58.88 12.68L58.88 12.68L58.88 12.68Q58.79 12.70 58.70 12.73L58.70 12.73L58.70 12.73Q58.32 12.84 58.00 12.66L58.00 12.66L58.00 12.66Q58.03 11.66 58.09 10.65L58.09 10.65L58.09 10.65Q58.10 10.36 58.09 10.04L58.09 10.04L58.09 10.04Q58.07 9.73 58.03 9.44L58.03 9.44L58.03 9.44Q57.92 8.75 57.59 8.53L57.59 8.53L57.59 8.53Q57.26 8.32 56.89 8.41L56.89 8.41L56.89 8.41Q56.52 8.50 56.20 8.81L56.20 8.81L56.20 8.81Q55.89 9.13 55.80 9.49L55.80 9.49L55.80 9.49Q55.64 10.21 55.61 10.93L55.61 10.93L55.61 10.93Q55.59 11.66 55.59 12.38L55.59 12.38L55.59 12.71L55.59 12.71Q55.48 12.71 55.31 12.73L55.31 12.73L55.31 12.73Q55.15 12.74 54.98 12.74L54.98 12.74L54.98 12.74Q54.81 12.74 54.68 12.69L54.68 12.69L54.68 12.69Q54.54 12.64 54.49 12.52L54.49 12.52L54.49 12.52Q54.49 12.40 54.49 11.99L54.49 11.99L54.49 11.99Q54.49 11.58 54.48 11.02L54.48 11.02L54.48 11.02Q54.47 10.46 54.47 9.84L54.47 9.84L54.47 9.84Q54.47 9.21 54.48 8.67L54.48 8.67L54.48 8.67Q54.49 8.13 54.51 7.77L54.51 7.77L54.51 7.77Q54.53 7.41 54.57 7.36L54.57 7.36L54.57 7.36Q54.59 7.34 54.66 7.32L54.66 7.32L54.66 7.32Q54.73 7.31 54.81 7.30L54.81 7.30L54.81 7.30Q54.89 7.29 54.96 7.29L54.96 7.29L54.96 7.29Q55.03 7.29 55.08 7.28L55.08 7.28L55.08 7.28Q55.15 7.22 55.26 7.25L55.26 7.25L55.26 7.25Q55.37 7.28 55.44 7.28L55.44 7.28L55.44 7.28Q55.51 7.48 55.54 7.71L55.54 7.71L55.54 7.71Q55.58 7.94 55.58 8.18L55.58 8.18L55.58 8.18Q55.94 7.77 56.43 7.47L56.43 7.47L56.43 7.47Q56.91 7.17 57.39 7.11L57.39 7.11L57.39 7.11Q57.88 7.04 58.31 7.28L58.31 7.28L58.31 7.28Q58.74 7.52 59.01 8.19L59.01 8.19L59.01 8.19Q59.28 8.85 59.30 9.58L59.30 9.58L59.30 9.58Q59.32 10.30 59.30 11.00L59.30 11.00L59.30 11.00Q59.30 11.14 59.30 11.38L59.30 11.38L59.30 11.38Q59.29 11.61 59.26 11.84L59.26 11.84L59.26 11.84Q59.23 12.08 59.19 12.31L59.19 12.31L59.19 12.31Q59.15 12.53 59.08 12.66Z"></path></g><!----><g data-v-423bf9ae="" id="d0d0fcc7-a3d1-4f14-8336-5b1f2f1c4dad" transform="matrix(1.0868111504448785,0,0,1.0868111504448785,-13.255261890115804,-0.23894260335429607)" stroke="none" fill="#ffffff"><g clip-rule="evenodd"><path d="M12.983 10.59l17.018 88.223-5.872-59.049 29.021-1.892-.054-9.883L64.549 1 53.622 18.977z"></path><path d="M59.389 54.548l5.16-53.541-8.74 39.716-19.612 1.045 1.57 20.462-7.766 36.583 12.057-39.899z"></path><path d="M62.8 67.182l.549-10.453-15.979 3.755-.032 11.797-17.337 26.532 21.68-27.616zM65.711 62.394l14.841-4.731 1.509-12.532-15.899 2.095zM72.07 44.502l10.988-1.417 1.581-10.278-8.079-.373L64.549 1l8.43 30.967z"></path><path d="M87.413 31.294l1.256-9.506-9.544-2.694L64.549 1l14.483 22.437-.422 7z"></path></g></g><!----></svg>